<svg xmlns="http://www.w3.org/2000/svg" viewBox="0 0 512 512" style="height: 512px; width: 512px;"><defs><radialGradient id="delapouite-circle-gradient-0"><stop offset="0%" stop-color="#fc2600" stop-opacity="1"></stop><stop offset="100%" stop-color="#d0021b" stop-opacity="1"></stop></radialGradient></defs><g class="" transform="translate(0,0)" style=""><g transform="translate(0, 0) scale(1, 1) rotate(360, 256, 256) skewX(0) skewY(0)"><path d="M256 23.05C127.5 23.05 23.05 127.5 23.05 256C23.05 384.5 127.5 488.9 256 488.9C384.5 488.9 488.9 384.5 488.9 256C488.9 127.5 384.5 23.05 256 23.05Z" class="" fill="#000000" fill-opacity="1" stroke="#000000" stroke-opacity="1" stroke-width="8"></path><path d="M256 40.95C374.9 40.95 471.1 137.1 471.1 256C471.1 374.9 374.9 471.1 256 471.1C137.1 471.1 40.95 374.9 40.95 256C40.95 137.1 137.1 40.95 256 40.95Z" class="selected" fill="#9013fe" fill-opacity="1" stroke="#000000" stroke-opacity="1" stroke-width="8"></path></g></g></svg>